Sora-Regular.ufo
<glyph name="exclam" format="2">
  <advance width="296"/>
  <unicode hex="0021"/>
  <outline>
    <contour>
      <point x="99" y="218" type="line"/>
      <point x="197" y="218" type="line"/>
      <point x="197" y="730" type="line"/>
      <point x="99" y="730" type="line"/>
    </contour>
    <contour>
      <point x="90" y="0" type="line"/>
      <point x="206" y="0" type="line"/>
      <point x="206" y="122" type="line"/>
      <point x="90" y="122" type="line"/>
    </contour>
  </outline>
</glyph>
<glyph name="numbersign" format="2">
  <advance width="692"/>
  <unicode hex="0023"/>
  <guideline x="66" y="360" angle="82.093"/>
  <guideline x="632" y="360" angle="82.093"/>
  <outline>
    <contour>
      <point x="130" y="0" type="line"/>
      <point x="216" y="0" type="line"/>
      <point x="329" y="730" type="line"/>
      <point x="243" y="730" type="line"/>
    </contour>
    <contour>
      <point x="364" y="0" type="line"/>
      <point x="450" y="0" type="line"/>
      <point x="563" y="730" type="line"/>
      <point x="477" y="730" type="line"/>
    </contour>
    <contour>
      <point x="36" y="209" type="line"/>
      <point x="620" y="209" type="line"/>
      <point x="620" y="279" type="line"/>
      <point x="36" y="279" type="line"/>
    </contour>
    <contour>
      <point x="72" y="451" type="line"/>
      <point x="656" y="451" type="line"/>
      <point x="656" y="521" type="line"/>
      <point x="72" y="521" type="line"/>
    </contour>
  </outline>
</glyph>
<glyph name="percent" format="2">
  <advance width="850"/>
  <unicode hex="0025"/>
  <outline>
    <contour>
      <point x="251" y="0" type="line"/>
      <point x="327" y="0" type="line"/>
      <point x="603" y="730" type="line"/>
      <point x="527" y="730" type="line"/>
    </contour>
    <contour>
      <point x="197" y="338" type="curve" smooth="yes"/>
      <point x="312" y="338"/>
      <point x="358" y="425"/>
      <point x="358" y="526" type="curve" smooth="yes"/>
      <point x="358" y="552" type="line" smooth="yes"/>
      <point x="358" y="659"/>
      <point x="308" y="740"/>
      <point x="197" y="740" type="curve" smooth="yes"/>
      <point x="86" y="740"/>
      <point x="36" y="659"/>
      <point x="36" y="552" type="curve" smooth="yes"/>
      <point x="36" y="526" type="line" smooth="yes"/>
      <point x="36" y="425"/>
      <point x="82" y="338"/>
    </contour>
    <contour>
      <point x="197" y="404" type="curve" smooth="yes"/>
      <point x="136" y="404"/>
      <point x="106" y="449"/>
      <point x="106" y="539" type="curve" smooth="yes"/>
      <point x="106" y="632"/>
      <point x="137" y="674"/>
      <point x="197" y="674" type="curve" smooth="yes"/>
      <point x="257" y="674"/>
      <point x="288" y="632"/>
      <point x="288" y="538" type="curve" smooth="yes"/>
      <point x="288" y="449"/>
      <point x="258" y="404"/>
    </contour>
    <contour>
      <point x="653" y="-10" type="curve" smooth="yes"/>
      <point x="768" y="-10"/>
      <point x="814" y="77"/>
      <point x="814" y="178" type="curve" smooth="yes"/>
      <point x="814" y="204" type="line" smooth="yes"/>
      <point x="814" y="311"/>
      <point x="764" y="392"/>
      <point x="653" y="392" type="curve" smooth="yes"/>
      <point x="542" y="392"/>
      <point x="492" y="311"/>
      <point x="492" y="204" type="curve" smooth="yes"/>
      <point x="492" y="178" type="line" smooth="yes"/>
      <point x="492" y="77"/>
      <point x="538" y="-10"/>
    </contour>
    <contour>
      <point x="653" y="56" type="curve" smooth="yes"/>
      <point x="592" y="56"/>
      <point x="562" y="101"/>
      <point x="562" y="191" type="curve" smooth="yes"/>
      <point x="562" y="284"/>
      <point x="593" y="326"/>
      <point x="653" y="326" type="curve" smooth="yes"/>
      <point x="713" y="326"/>
      <point x="744" y="284"/>
      <point x="744" y="190" type="curve" smooth="yes"/>
      <point x="744" y="101"/>
      <point x="714" y="56"/>
    </contour>
  </outline>
</glyph>
<glyph name="parenleft" format="2">
  <advance width="376"/>
  <unicode hex="0028"/>
  <guideline y="-182"/>
  <outline>
    <contour>
      <point x="250" y="-182" type="curve"/>
      <point x="360" y="-182" type="line"/>
      <point x="233" y="-42"/>
      <point x="166" y="103"/>
      <point x="166" y="301" type="curve" smooth="yes"/>
      <point x="166" y="499"/>
      <point x="235" y="642"/>
      <point x="360" y="776" type="curve"/>
      <point x="250" y="776" type="line"/>
      <point x="145" y="661"/>
      <point x="72" y="513"/>
      <point x="72" y="301" type="curve" smooth="yes"/>
      <point x="72" y="89"/>
      <point x="143" y="-61"/>
    </contour>
  </outline>
</glyph>
<glyph name="zero" format="2">
  <advance width="743"/>
  <unicode hex="0030"/>
  <outline>
    <contour>
      <point x="372" y="-18" type="curve" smooth="yes"/>
      <point x="590" y="-18"/>
      <point x="671" y="146"/>
      <point x="671" y="338" type="curve" smooth="yes"/>
      <point x="671" y="392" type="line" smooth="yes"/>
      <point x="671" y="593"/>
      <point x="580" y="750"/>
      <point x="372" y="750" type="curve" smooth="yes"/>
      <point x="163" y="750"/>
      <point x="72" y="593"/>
      <point x="72" y="392" type="curve" smooth="yes"/>
      <point x="72" y="338" type="line" smooth="yes"/>
      <point x="72" y="146"/>
      <point x="153" y="-18"/>
    </contour>
    <contour>
      <point x="372" y="70" type="curve" smooth="yes"/>
      <point x="233" y="70"/>
      <point x="170" y="160"/>
      <point x="170" y="366" type="curve" smooth="yes"/>
      <point x="170" y="577"/>
      <point x="235" y="662"/>
      <point x="372" y="662" type="curve" smooth="yes"/>
      <point x="508" y="662"/>
      <point x="573" y="577"/>
      <point x="573" y="364" type="curve" smooth="yes"/>
      <point x="573" y="160"/>
      <point x="510" y="70"/>
    </contour>
  </outline>
</glyph>
<glyph name="seven" format="2">
  <advance width="574"/>
  <unicode hex="0037"/>
  <outline>
    <contour>
      <point x="144" y="0" type="line"/>
      <point x="244" y="0" type="line"/>
      <point x="538" y="614" type="line"/>
      <point x="538" y="730" type="line"/>
      <point x="48" y="730" type="line"/>
      <point x="48" y="648" type="line"/>
      <point x="447" y="648" type="line"/>
      <point x="453" y="639" type="line"/>
    </contour>
    <contour>
      <point x="48" y="532" type="line"/>
      <point x="128" y="532" type="line"/>
      <point x="128" y="730" type="line"/>
      <point x="48" y="730" type="line"/>
    </contour>
  </outline>
</glyph>
<glyph name="eight" format="2">
  <advance width="637"/>
  <unicode hex="0038"/>
  <outline>
    <contour>
      <point x="318" y="-18" type="curve" smooth="yes"/>
      <point x="475" y="-18"/>
      <point x="587" y="71"/>
      <point x="587" y="204" type="curve" smooth="yes"/>
      <point x="587" y="290"/>
      <point x="532" y="356"/>
      <point x="454" y="385" type="curve"/>
      <point x="454" y="395" type="line"/>
      <point x="516" y="421"/>
      <point x="562" y="474"/>
      <point x="562" y="550" type="curve" smooth="yes"/>
      <point x="562" y="675"/>
      <point x="452" y="748"/>
      <point x="318" y="748" type="curve" smooth="yes"/>
      <point x="185" y="748"/>
      <point x="74" y="675"/>
      <point x="74" y="550" type="curve" smooth="yes"/>
      <point x="74" y="474"/>
      <point x="121" y="421"/>
      <point x="182" y="395" type="curve"/>
      <point x="182" y="385" type="line"/>
      <point x="105" y="356"/>
      <point x="50" y="291"/>
      <point x="50" y="204" type="curve" smooth="yes"/>
      <point x="50" y="72"/>
      <point x="161" y="-18"/>
    </contour>
    <contour>
      <point x="318" y="64" type="curve" smooth="yes"/>
      <point x="208" y="64"/>
      <point x="144" y="119"/>
      <point x="144" y="208" type="curve" smooth="yes"/>
      <point x="144" y="296"/>
      <point x="208" y="351"/>
      <point x="318" y="351" type="curve" smooth="yes"/>
      <point x="429" y="351"/>
      <point x="493" y="296"/>
      <point x="493" y="208" type="curve" smooth="yes"/>
      <point x="493" y="119"/>
      <point x="428" y="64"/>
    </contour>
    <contour>
      <point x="318" y="427" type="curve" smooth="yes"/>
      <point x="229" y="427"/>
      <point x="168" y="465"/>
      <point x="168" y="547" type="curve" smooth="yes"/>
      <point x="168" y="628"/>
      <point x="228" y="666"/>
      <point x="318" y="666" type="curve" smooth="yes"/>
      <point x="407" y="666"/>
      <point x="468" y="629"/>
      <point x="468" y="547" type="curve" smooth="yes"/>
      <point x="468" y="465"/>
      <point x="408" y="427"/>
    </contour>
  </outline>
</glyph>
<glyph name="greater" format="2">
  <advance width="590"/>
  <unicode hex="003E"/>
  <outline>
    <contour>
      <point x="76" y="120" type="line"/>
      <point x="514" y="267" type="line"/>
      <point x="514" y="344" type="line"/>
      <point x="76" y="200" type="line"/>
    </contour>
    <contour>
      <point x="514" y="316" type="line"/>
      <point x="514" y="391" type="line"/>
      <point x="76" y="538" type="line"/>
      <point x="76" y="460" type="line"/>
    </contour>
    <contour>
      <point x="444" y="289" type="line"/>
      <point x="474" y="289" type="line"/>
      <point x="474" y="371" type="line"/>
      <point x="444" y="371" type="line"/>
    </contour>
  </outline>
</glyph>
<glyph name="C" format="2">
  <advance width="795"/>
  <unicode hex="0043"/>
  <anchor x="418" y="0" name="bottom"/>
  <anchor x="417" y="730" name="top"/>
  <outline>
    <contour>
      <point x="423" y="-18" type="curve" smooth="yes"/>
      <point x="627" y="-18"/>
      <point x="739" y="105"/>
      <point x="759" y="255" type="curve"/>
      <point x="659" y="255" type="line"/>
      <point x="640" y="136"/>
      <point x="548" y="72"/>
      <point x="423" y="72" type="curve" smooth="yes"/>
      <point x="245" y="72"/>
      <point x="156" y="209"/>
      <point x="156" y="366" type="curve" smooth="yes"/>
      <point x="156" y="530"/>
      <point x="244" y="660"/>
      <point x="417" y="660" type="curve" smooth="yes"/>
      <point x="536" y="660"/>
      <point x="629" y="601"/>
      <point x="646" y="477" type="curve"/>
      <point x="746" y="477" type="line"/>
      <point x="727" y="642"/>
      <point x="612" y="750"/>
      <point x="417" y="750" type="curve" smooth="yes"/>
      <point x="160" y="750"/>
      <point x="56" y="554"/>
      <point x="56" y="378" type="curve" smooth="yes"/>
      <point x="56" y="356" type="line" smooth="yes"/>
      <point x="56" y="193"/>
      <point x="155" y="-18"/>
    </contour>
  </outline>
</glyph>
<glyph name="L" format="2">
  <advance width="544"/>
  <unicode hex="004C"/>
  <anchor x="312" y="0" name="bottom"/>
  <anchor x="155" y="365" name="center"/>
  <anchor x="155" y="730" name="top"/>
  <anchor x="270" y="541" name="topright"/>
  <outline>
    <contour>
      <point x="106" y="0" type="line"/>
      <point x="204" y="0" type="line"/>
      <point x="204" y="730" type="line"/>
      <point x="106" y="730" type="line"/>
    </contour>
    <contour>
      <point x="184" y="0" type="line"/>
      <point x="518" y="0" type="line"/>
      <point x="518" y="88" type="line"/>
      <point x="184" y="88" type="line"/>
    </contour>
  </outline>
</glyph>
<glyph name="M" format="2">
  <advance width="920"/>
  <unicode hex="004D"/>
  <guideline x="6" y="587" angle="0"/>
  <outline>
    <contour>
      <point x="106" y="0" type="line"/>
      <point x="196" y="0" type="line"/>
      <point x="196" y="623" type="line"/>
      <point x="188" y="621" type="line"/>
      <point x="396" y="151" type="line"/>
      <point x="516" y="151" type="line"/>
      <point x="723" y="621" type="line"/>
      <point x="716" y="623" type="line"/>
      <point x="716" y="0" type="line"/>
      <point x="814" y="0" type="line"/>
      <point x="814" y="730" type="line"/>
      <point x="683" y="730" type="line"/>
      <point x="468" y="243" type="line"/>
      <point x="452" y="243" type="line"/>
      <point x="236" y="730" type="line"/>
      <point x="106" y="730" type="line"/>
    </contour>
  </outline>
</glyph>
<glyph name="S" format="2">
  <advance width="689"/>
  <unicode hex="0053"/>
  <anchor x="342" y="0" name="bottom"/>
  <anchor x="344" y="730" name="top"/>
  <outline>
    <contour>
      <point x="343" y="-18" type="curve" smooth="yes"/>
      <point x="515" y="-18"/>
      <point x="631" y="76"/>
      <point x="631" y="211" type="curve" smooth="yes"/>
      <point x="631" y="328"/>
      <point x="537" y="399"/>
      <point x="388" y="412" type="curve" smooth="yes"/>
      <point x="307" y="419" type="line" smooth="yes"/>
      <point x="225" y="426"/>
      <point x="184" y="472"/>
      <point x="184" y="526" type="curve" smooth="yes"/>
      <point x="184" y="595"/>
      <point x="235" y="660"/>
      <point x="344" y="660" type="curve" smooth="yes"/>
      <point x="455" y="660"/>
      <point x="503" y="592"/>
      <point x="503" y="523" type="curve"/>
      <point x="601" y="523" type="line"/>
      <point x="601" y="662"/>
      <point x="496" y="750"/>
      <point x="344" y="750" type="curve" smooth="yes"/>
      <point x="190" y="750"/>
      <point x="86" y="659"/>
      <point x="86" y="526" type="curve" smooth="yes"/>
      <point x="86" y="413"/>
      <point x="170" y="340"/>
      <point x="299" y="329" type="curve" smooth="yes"/>
      <point x="380" y="322" type="line" smooth="yes"/>
      <point x="480" y="313"/>
      <point x="533" y="271"/>
      <point x="533" y="211" type="curve" smooth="yes"/>
      <point x="533" y="137"/>
      <point x="475" y="72"/>
      <point x="343" y="72" type="curve" smooth="yes"/>
      <point x="201" y="72"/>
      <point x="154" y="148"/>
      <point x="154" y="215" type="curve"/>
      <point x="56" y="215" type="line"/>
      <point x="56" y="80"/>
      <point x="161" y="-18"/>
    </contour>
  </outline>
</glyph>
<glyph name="Y" format="2">
  <advance width="652"/>
  <unicode hex="0059"/>
  <anchor x="332" y="0" name="bottom"/>
  <anchor x="323" y="730" name="top"/>
  <outline>
    <contour>
      <point x="248" y="284" type="line"/>
      <point x="416" y="284" type="line"/>
      <point x="634" y="730" type="line"/>
      <point x="538" y="730" type="line"/>
      <point x="354" y="348" type="line"/>
      <point x="394" y="359" type="line"/>
      <point x="276" y="359" type="line"/>
      <point x="314" y="348" type="line"/>
      <point x="118" y="730" type="line"/>
      <point x="16" y="730" type="line"/>
    </contour>
    <contour>
      <point x="284" y="0" type="line"/>
      <point x="380" y="0" type="line"/>
      <point x="380" y="304" type="line"/>
      <point x="284" y="304" type="line"/>
    </contour>
  </outline>
</glyph>
<glyph name="Z" format="2">
  <advance width="654"/>
  <unicode hex="005A"/>
  <anchor x="336" y="0" name="bottom"/>
  <anchor x="328" y="365" name="center"/>
  <anchor x="325" y="730" name="top"/>
  <outline>
    <contour>
      <point x="62" y="0" type="line"/>
      <point x="608" y="0" type="line"/>
      <point x="608" y="82" type="line"/>
      <point x="150" y="82" type="line"/>
      <point x="175" y="66" type="line"/>
      <point x="143" y="111" type="line"/>
      <point x="144" y="83" type="line"/>
      <point x="595" y="610" type="line"/>
      <point x="595" y="730" type="line"/>
      <point x="71" y="730" type="line"/>
      <point x="71" y="648" type="line"/>
      <point x="502" y="648" type="line"/>
      <point x="485" y="659" type="line"/>
      <point x="511" y="623" type="line"/>
      <point x="512" y="647" type="line"/>
      <point x="62" y="120" type="line"/>
    </contour>
  </outline>
</glyph>
<glyph name="c" format="2">
  <advance width="606"/>
  <unicode hex="0063"/>
  <anchor x="317" y="0" name="bottom"/>
  <anchor x="319" y="534" name="top"/>
  <outline>
    <contour>
      <point x="321" y="-18" type="curve" smooth="yes"/>
      <point x="456" y="-18"/>
      <point x="561" y="62"/>
      <point x="568" y="188" type="curve"/>
      <point x="476" y="188" type="line"/>
      <point x="468" y="120"/>
      <point x="410" y="68"/>
      <point x="321" y="68" type="curve" smooth="yes"/>
      <point x="204" y="68"/>
      <point x="148" y="156"/>
      <point x="148" y="267" type="curve" smooth="yes"/>
      <point x="148" y="381"/>
      <point x="204" y="466"/>
      <point x="319" y="466" type="curve" smooth="yes"/>
      <point x="407" y="466"/>
      <point x="460" y="416"/>
      <point x="470" y="349" type="curve"/>
      <point x="562" y="349" type="line"/>
      <point x="553" y="473"/>
      <point x="453" y="552"/>
      <point x="319" y="552" type="curve" smooth="yes"/>
      <point x="140" y="552"/>
      <point x="52" y="411"/>
      <point x="52" y="276" type="curve" smooth="yes"/>
      <point x="52" y="258" type="line" smooth="yes"/>
      <point x="52" y="126"/>
      <point x="138" y="-18"/>
    </contour>
  </outline>
</glyph>
<glyph name="f" format="2">
  <advance width="379"/>
  <unicode hex="0066"/>
  <outline>
    <contour>
      <point x="106" y="0" type="line"/>
      <point x="198" y="0" type="line"/>
      <point x="198" y="577" type="line" smooth="yes"/>
      <point x="198" y="625"/>
      <point x="225" y="654"/>
      <point x="275" y="654" type="curve" smooth="yes"/>
      <point x="357" y="654" type="line"/>
      <point x="357" y="734" type="line"/>
      <point x="291" y="734" type="line" smooth="yes"/>
      <point x="170" y="734"/>
      <point x="106" y="680"/>
      <point x="106" y="561" type="curve" smooth="yes"/>
    </contour>
    <contour>
      <point x="32" y="456" type="line"/>
      <point x="367" y="456" type="line"/>
      <point x="367" y="528" type="line"/>
      <point x="32" y="528" type="line"/>
    </contour>
  </outline>
</glyph>
<glyph name="i" format="2">
  <advance width="308"/>
  <unicode hex="0069"/>
  <anchor x="166" y="0" name="bottom"/>
  <outline>
    <contour>
      <point x="118" y="0" type="line"/>
      <point x="214" y="0" type="line"/>
      <point x="214" y="534" type="line"/>
      <point x="118" y="534" type="line"/>
    </contour>
    <contour>
      <point x="36" y="458" type="line"/>
      <point x="214" y="458" type="line"/>
      <point x="214" y="534" type="line"/>
      <point x="36" y="534" type="line"/>
    </contour>
    <contour>
      <point x="145" y="620" type="curve" smooth="yes"/>
      <point x="188" y="620"/>
      <point x="208" y="645"/>
      <point x="208" y="680" type="curve" smooth="yes"/>
      <point x="208" y="715"/>
      <point x="188" y="740"/>
      <point x="145" y="740" type="curve" smooth="yes"/>
      <point x="102" y="740"/>
      <point x="82" y="715"/>
      <point x="82" y="680" type="curve" smooth="yes"/>
      <point x="82" y="645"/>
      <point x="102" y="620"/>
    </contour>
  </outline>
</glyph>
<glyph name="l" format="2">
  <advance width="286"/>
  <unicode hex="006C"/>
  <anchor x="146" y="0" name="bottom"/>
  <anchor x="146" y="480" name="center"/>
  <anchor x="119" y="730" name="top"/>
  <anchor x="194" y="534" name="topright"/>
  <outline>
    <contour>
      <point x="98" y="0" type="line"/>
      <point x="194" y="0" type="line"/>
      <point x="194" y="730" type="line"/>
      <point x="98" y="730" type="line"/>
    </contour>
    <contour>
      <point x="24" y="654" type="line"/>
      <point x="194" y="654" type="line"/>
      <point x="194" y="730" type="line"/>
      <point x="24" y="730" type="line"/>
    </contour>
  </outline>
</glyph>
<glyph name="n" format="2">
  <advance width="640"/>
  <unicode hex="006E"/>
  <anchor x="324" y="0" name="bottom"/>
  <anchor x="328" y="534" name="top"/>
  <outline>
    <contour>
      <point x="92" y="0" type="line"/>
      <point x="188" y="0" type="line"/>
      <point x="188" y="319" type="line" smooth="yes"/>
      <point x="188" y="405"/>
      <point x="245" y="462"/>
      <point x="329" y="462" type="curve" smooth="yes"/>
      <point x="410" y="462"/>
      <point x="460" y="408"/>
      <point x="460" y="325" type="curve" smooth="yes"/>
      <point x="460" y="0" type="line"/>
      <point x="556" y="0" type="line"/>
      <point x="556" y="305" type="line" smooth="yes"/>
      <point x="556" y="463"/>
      <point x="492" y="550"/>
      <point x="358" y="550" type="curve" smooth="yes"/>
      <point x="354" y="550" type="line" smooth="yes"/>
      <point x="220" y="550"/>
      <point x="156" y="463"/>
      <point x="156" y="305" type="curve"/>
      <point x="168" y="305" type="line"/>
      <point x="168" y="534" type="line"/>
      <point x="92" y="534" type="line"/>
    </contour>
  </outline>
</glyph>
<glyph name="s" format="2">
  <advance width="536"/>
  <unicode hex="0073"/>
  <note>
s
</note>
  <anchor x="269" y="0" name="bottom"/>
  <anchor x="266" y="534" name="top"/>
  <outline>
    <contour>
      <point x="267" y="-16" type="curve" smooth="yes"/>
      <point x="397" y="-16"/>
      <point x="489" y="54"/>
      <point x="489" y="154" type="curve" smooth="yes"/>
      <point x="489" y="247"/>
      <point x="413" y="298"/>
      <point x="299" y="310" type="curve" smooth="yes"/>
      <point x="241" y="316" type="line" smooth="yes"/>
      <point x="178" y="323"/>
      <point x="153" y="347"/>
      <point x="153" y="387" type="curve" smooth="yes"/>
      <point x="153" y="433"/>
      <point x="192" y="468"/>
      <point x="267" y="468" type="curve" smooth="yes"/>
      <point x="342" y="468"/>
      <point x="379" y="434"/>
      <point x="381" y="391" type="curve"/>
      <point x="471" y="391" type="line"/>
      <point x="468" y="496"/>
      <point x="387" y="550"/>
      <point x="267" y="550" type="curve" smooth="yes"/>
      <point x="147" y="550"/>
      <point x="63" y="489"/>
      <point x="63" y="387" type="curve" smooth="yes"/>
      <point x="63" y="296"/>
      <point x="133" y="247"/>
      <point x="235" y="236" type="curve" smooth="yes"/>
      <point x="293" y="230" type="line" smooth="yes"/>
      <point x="368" y="222"/>
      <point x="399" y="198"/>
      <point x="399" y="154" type="curve" smooth="yes"/>
      <point x="399" y="104"/>
      <point x="352" y="66"/>
      <point x="267" y="66" type="curve" smooth="yes"/>
      <point x="172" y="66"/>
      <point x="137" y="110"/>
      <point x="135" y="152" type="curve"/>
      <point x="45" y="152" type="line"/>
      <point x="48" y="48"/>
      <point x="127" y="-16"/>
    </contour>
  </outline>
</glyph>
<glyph name="x" format="2">
  <advance width="560"/>
  <unicode hex="0078"/>
  <outline>
    <contour>
      <point x="28" y="0" type="line"/>
      <point x="127" y="0" type="line"/>
      <point x="271" y="217" type="line"/>
      <point x="285" y="217" type="line"/>
      <point x="435" y="0" type="line"/>
      <point x="541" y="0" type="line"/>
      <point x="341" y="286" type="line"/>
      <point x="338" y="268" type="line"/>
      <point x="507" y="534" type="line"/>
      <point x="408" y="534" type="line"/>
      <point x="286" y="333" type="line"/>
      <point x="272" y="333" type="line"/>
      <point x="143" y="534" type="line"/>
      <point x="37" y="534" type="line"/>
      <point x="216" y="261" type="line"/>
      <point x="219" y="281" type="line"/>
    </contour>
  </outline>
</glyph>
<glyph name="sterling" format="2">
  <advance width="624"/>
  <unicode hex="00A3"/>
  <outline>
    <contour>
      <point x="124" y="0" type="line"/>
      <point x="210" y="0" type="line"/>
      <point x="210" y="486" type="line" smooth="yes"/>
      <point x="210" y="608"/>
      <point x="272" y="656"/>
      <point x="379" y="656" type="curve" smooth="yes"/>
      <point x="426" y="656"/>
      <point x="503" y="651"/>
      <point x="542" y="646" type="curve"/>
      <point x="542" y="728" type="line"/>
      <point x="504" y="733"/>
      <point x="429" y="738"/>
      <point x="381" y="738" type="curve" smooth="yes"/>
      <point x="211" y="738"/>
      <point x="124" y="647"/>
      <point x="124" y="493" type="curve" smooth="yes"/>
    </contour>
    <contour>
      <point x="44" y="0" type="line"/>
      <point x="544" y="0" type="line"/>
      <point x="544" y="76" type="line"/>
      <point x="44" y="76" type="line"/>
    </contour>
    <contour>
      <point x="50" y="316" type="line"/>
      <point x="464" y="316" type="line"/>
      <point x="464" y="382" type="line"/>
      <point x="50" y="382" type="line"/>
    </contour>
    <contour>
      <point x="508" y="0" type="line"/>
      <point x="588" y="0" type="line"/>
      <point x="588" y="170" type="line"/>
      <point x="508" y="170" type="line"/>
    </contour>
  </outline>
</glyph>
<glyph name="currency" format="2">
  <advance width="666"/>
  <unicode hex="00A4"/>
  <outline>
    <contour>
      <point x="333" y="145" type="curve" smooth="yes"/>
      <point x="484" y="145"/>
      <point x="561" y="258"/>
      <point x="561" y="360" type="curve" smooth="yes"/>
      <point x="561" y="376" type="line" smooth="yes"/>
      <point x="561" y="480"/>
      <point x="484" y="591"/>
      <point x="333" y="591" type="curve" smooth="yes"/>
      <point x="182" y="591"/>
      <point x="105" y="480"/>
      <point x="105" y="376" type="curve" smooth="yes"/>
      <point x="105" y="360" type="line" smooth="yes"/>
      <point x="105" y="258"/>
      <point x="182" y="145"/>
    </contour>
    <contour>
      <point x="100" y="93" type="line"/>
      <point x="203" y="196" type="line"/>
      <point x="145" y="254" type="line"/>
      <point x="42" y="151" type="line"/>
    </contour>
    <contour>
      <point x="145" y="482" type="line"/>
      <point x="203" y="540" type="line"/>
      <point x="100" y="643" type="line"/>
      <point x="42" y="585" type="line"/>
    </contour>
    <contour>
      <point x="333" y="225" type="curve" smooth="yes"/>
      <point x="242" y="225"/>
      <point x="191" y="285"/>
      <point x="191" y="368" type="curve" smooth="yes"/>
      <point x="191" y="454"/>
      <point x="244" y="511"/>
      <point x="333" y="511" type="curve" smooth="yes"/>
      <point x="422" y="511"/>
      <point x="475" y="454"/>
      <point x="475" y="368" type="curve" smooth="yes"/>
      <point x="475" y="285"/>
      <point x="424" y="225"/>
    </contour>
    <contour>
      <point x="566" y="93" type="line"/>
      <point x="624" y="151" type="line"/>
      <point x="521" y="254" type="line"/>
      <point x="463" y="196" type="line"/>
    </contour>
    <contour>
      <point x="521" y="482" type="line"/>
      <point x="624" y="585" type="line"/>
      <point x="566" y="643" type="line"/>
      <point x="463" y="540" type="line"/>
    </contour>
  </outline>
</glyph>
<glyph name="yen" format="2">
  <advance width="624"/>
  <unicode hex="00A5"/>
  <outline>
    <contour>
      <point x="240" y="308" type="line"/>
      <point x="398" y="308" type="line"/>
      <point x="604" y="730" type="line"/>
      <point x="508" y="730" type="line"/>
      <point x="335" y="366" type="line"/>
      <point x="377" y="374" type="line"/>
      <point x="267" y="374" type="line"/>
      <point x="307" y="366" type="line"/>
      <point x="122" y="730" type="line"/>
      <point x="20" y="730" type="line"/>
    </contour>
    <contour>
      <point x="274" y="0" type="line"/>
      <point x="364" y="0" type="line"/>
      <point x="364" y="328" type="line"/>
      <point x="274" y="328" type="line"/>
    </contour>
    <contour>
      <point x="58" y="156" type="line"/>
      <point x="580" y="156" type="line"/>
      <point x="580" y="222" type="line"/>
      <point x="58" y="222" type="line"/>
    </contour>
    <contour>
      <point x="58" y="308" type="line"/>
      <point x="580" y="308" type="line"/>
      <point x="580" y="374" type="line"/>
      <point x="58" y="374" type="line"/>
    </contour>
  </outline>
</glyph>
<glyph name="brokenbar" format="2">
  <advance width="374"/>
  <unicode hex="00A6"/>
  <outline>
    <contour>
      <point x="144" y="350" type="line"/>
      <point x="230" y="350" type="line"/>
      <point x="230" y="730" type="line"/>
      <point x="144" y="730" type="line"/>
    </contour>
    <contour>
      <point x="144" y="-200" type="line"/>
      <point x="230" y="-200" type="line"/>
      <point x="230" y="170" type="line"/>
      <point x="144" y="170" type="line"/>
    </contour>
  </outline>
</glyph>
<glyph name="registered" format="2">
  <advance width="678"/>
  <unicode hex="00AE"/>
  <outline>
    <contour>
      <point x="339" y="182" type="curve" smooth="yes"/>
      <point x="526" y="182"/>
      <point x="624" y="328"/>
      <point x="624" y="459" type="curve" smooth="yes"/>
      <point x="624" y="475" type="line" smooth="yes"/>
      <point x="624" y="610"/>
      <point x="522" y="750"/>
      <point x="339" y="750" type="curve" smooth="yes"/>
      <point x="156" y="750"/>
      <point x="54" y="610"/>
      <point x="54" y="475" type="curve" smooth="yes"/>
      <point x="54" y="459" type="line" smooth="yes"/>
      <point x="54" y="328"/>
      <point x="152" y="182"/>
    </contour>
    <contour>
      <point x="339" y="234" type="curve" smooth="yes"/>
      <point x="201" y="234"/>
      <point x="110" y="338"/>
      <point x="110" y="466" type="curve" smooth="yes"/>
      <point x="110" y="598"/>
      <point x="201" y="698"/>
      <point x="339" y="698" type="curve" smooth="yes"/>
      <point x="477" y="698"/>
      <point x="568" y="598"/>
      <point x="568" y="466" type="curve" smooth="yes"/>
      <point x="568" y="338"/>
      <point x="477" y="234"/>
    </contour>
    <contour>
      <point x="231" y="318" type="line"/>
      <point x="287" y="318" type="line"/>
      <point x="287" y="625" type="line"/>
      <point x="231" y="625" type="line"/>
    </contour>
    <contour>
      <point x="415" y="318" type="line"/>
      <point x="481" y="318" type="line"/>
      <point x="382" y="435" type="line"/>
      <point x="319" y="435" type="line"/>
    </contour>
    <contour>
      <point x="258" y="419" type="line"/>
      <point x="334" y="419" type="line" smooth="yes"/>
      <point x="410" y="419"/>
      <point x="460" y="458"/>
      <point x="460" y="522" type="curve" smooth="yes"/>
      <point x="460" y="587"/>
      <point x="410" y="625"/>
      <point x="334" y="625" type="curve" smooth="yes"/>
      <point x="258" y="625" type="line"/>
      <point x="258" y="575" type="line"/>
      <point x="342" y="575" type="line" smooth="yes"/>
      <point x="382" y="575"/>
      <point x="403" y="559"/>
      <point x="403" y="522" type="curve" smooth="yes"/>
      <point x="403" y="486"/>
      <point x="382" y="469"/>
      <point x="342" y="469" type="curve" smooth="yes"/>
      <point x="258" y="469" type="line"/>
    </contour>
  </outline>
</glyph>
<glyph name="germandbls" format="2">
  <advance width="622"/>
  <unicode hex="00DF"/>
  <outline>
    <contour>
      <point x="347" y="-12" type="curve" smooth="yes"/>
      <point x="494" y="-12"/>
      <point x="582" y="74"/>
      <point x="582" y="197" type="curve" smooth="yes"/>
      <point x="582" y="322"/>
      <point x="490" y="410"/>
      <point x="318" y="410" type="curve"/>
      <point x="312" y="378" type="line"/>
      <point x="435" y="378"/>
      <point x="510" y="447"/>
      <point x="510" y="552" type="curve" smooth="yes"/>
      <point x="510" y="656"/>
      <point x="437" y="744"/>
      <point x="309" y="744" type="curve" smooth="yes"/>
      <point x="305" y="744" type="line" smooth="yes"/>
      <point x="170" y="744"/>
      <point x="96" y="651"/>
      <point x="96" y="499" type="curve" smooth="yes"/>
      <point x="96" y="0" type="line"/>
      <point x="192" y="0" type="line"/>
      <point x="192" y="513" type="line" smooth="yes"/>
      <point x="192" y="596"/>
      <point x="229" y="662"/>
      <point x="307" y="662" type="curve" smooth="yes"/>
      <point x="381" y="662"/>
      <point x="414" y="604"/>
      <point x="414" y="547" type="curve" smooth="yes"/>
      <point x="414" y="490"/>
      <point x="382" y="432"/>
      <point x="307" y="432" type="curve" smooth="yes"/>
      <point x="284" y="432" type="line"/>
      <point x="284" y="356" type="line"/>
      <point x="323" y="356" type="line" smooth="yes"/>
      <point x="424" y="356"/>
      <point x="486" y="288"/>
      <point x="486" y="201" type="curve" smooth="yes"/>
      <point x="486" y="127"/>
      <point x="442" y="70"/>
      <point x="347" y="70" type="curve" smooth="yes"/>
      <point x="321" y="70"/>
      <point x="281" y="74"/>
      <point x="254" y="79" type="curve"/>
      <point x="254" y="-3" type="line"/>
      <point x="280" y="-8"/>
      <point x="315" y="-12"/>
    </contour>
    <contour>
      <point x="36" y="448" type="line"/>
      <point x="126" y="448" type="line"/>
      <point x="126" y="524" type="line"/>
      <point x="36" y="524" type="line"/>
    </contour>
  </outline>
</glyph>
<glyph name="Hbar" format="2">
  <advance width="804"/>
  <unicode hex="0126"/>
  <anchor x="402" y="0" name="bottom"/>
  <anchor x="402" y="606" name="center"/>
  <anchor x="402" y="730" name="top"/>
  <outline>
    <contour>
      <point x="42" y="556" type="line"/>
      <point x="762" y="556" type="line"/>
      <point x="762" y="636" type="line"/>
      <point x="42" y="636" type="line"/>
    </contour>
    <component base="H"/>
  </outline>
</glyph>
<glyph name="lslash" format="2">
  <advance width="286"/>
  <unicode hex="0142"/>
  <anchor x="146" y="0" name="bottom"/>
  <anchor x="146" y="480" name="center"/>
  <anchor x="119" y="730" name="top"/>
  <anchor x="194" y="534" name="topright"/>
  <outline>
    <contour>
      <point x="19" y="224" type="line"/>
      <point x="118" y="281" type="line"/>
      <point x="118" y="353" type="line"/>
      <point x="19" y="296" type="line"/>
    </contour>
    <contour>
      <point x="174" y="309" type="line"/>
      <point x="273" y="366" type="line"/>
      <point x="273" y="438" type="line"/>
      <point x="174" y="381" type="line"/>
    </contour>
    <component base="l"/>
  </outline>
</glyph>
<glyph name="oe" format="2">
  <advance width="1084"/>
  <unicode hex="0153"/>
  <outline>
    <contour>
      <point x="337" y="-18" type="curve" smooth="yes"/>
      <point x="532" y="-18"/>
      <point x="605" y="130"/>
      <point x="605" y="257" type="curve"/>
      <point x="541" y="257" type="line"/>
      <point x="541" y="128"/>
      <point x="598" y="-18"/>
      <point x="791" y="-18" type="curve" smooth="yes"/>
      <point x="917" y="-18"/>
      <point x="1008" y="45"/>
      <point x="1031" y="156" type="curve"/>
      <point x="941" y="156" type="line"/>
      <point x="930" y="106"/>
      <point x="875" y="68"/>
      <point x="791" y="68" type="curve" smooth="yes"/>
      <point x="670" y="68"/>
      <point x="616" y="153"/>
      <point x="616" y="267" type="curve" smooth="yes"/>
      <point x="616" y="384"/>
      <point x="672" y="466"/>
      <point x="785" y="466" type="curve" smooth="yes"/>
      <point x="892" y="466"/>
      <point x="948" y="395"/>
      <point x="948" y="282" type="curve"/>
      <point x="970" y="321" type="line"/>
      <point x="608" y="321" type="line"/>
      <point x="608" y="249" type="line"/>
      <point x="1040" y="249" type="line"/>
      <point x="1040" y="292" type="line" smooth="yes"/>
      <point x="1040" y="427"/>
      <point x="956" y="552"/>
      <point x="785" y="552" type="curve" smooth="yes"/>
      <point x="606" y="552"/>
      <point x="541" y="414"/>
      <point x="541" y="277" type="curve"/>
      <point x="605" y="277" type="line"/>
      <point x="605" y="411"/>
      <point x="525" y="552"/>
      <point x="337" y="552" type="curve" smooth="yes"/>
      <point x="155" y="552"/>
      <point x="52" y="415"/>
      <point x="52" y="276" type="curve" smooth="yes"/>
      <point x="52" y="258" type="line" smooth="yes"/>
      <point x="52" y="121"/>
      <point x="150" y="-18"/>
    </contour>
    <contour>
      <point x="337" y="68" type="curve" smooth="yes"/>
      <point x="218" y="68"/>
      <point x="148" y="153"/>
      <point x="148" y="267" type="curve" smooth="yes"/>
      <point x="148" y="383"/>
      <point x="221" y="466"/>
      <point x="337" y="466" type="curve" smooth="yes"/>
      <point x="453" y="466"/>
      <point x="526" y="381"/>
      <point x="526" y="267" type="curve" smooth="yes"/>
      <point x="526" y="155"/>
      <point x="456" y="68"/>
    </contour>
  </outline>
</glyph>
<glyph name="circumflexcomb" format="2">
  <unicode hex="0302"/>
  <anchor x="164" y="534" name="_top"/>
  <anchor x="164" y="810" name="top"/>
  <outline>
    <contour>
      <point x="0" y="612" type="line"/>
      <point x="78" y="612" type="line"/>
      <point x="160" y="762" type="line"/>
      <point x="168" y="762" type="line"/>
      <point x="248" y="612" type="line"/>
      <point x="326" y="612" type="line"/>
      <point x="218" y="810" type="line"/>
      <point x="110" y="810" type="line"/>
    </contour>
  </outline>
</glyph>
<glyph name="tildecomb" format="2">
  <unicode hex="0303"/>
  <anchor x="158" y="534" name="_top"/>
  <anchor x="158" y="807" name="top"/>
  <outline>
    <contour>
      <point x="226" y="641" type="curve" smooth="yes"/>
      <point x="265" y="641"/>
      <point x="296" y="661"/>
      <point x="316" y="686" type="curve"/>
      <point x="300" y="750" type="line"/>
      <point x="281" y="726"/>
      <point x="257" y="711"/>
      <point x="229" y="711" type="curve" smooth="yes"/>
      <point x="178" y="711"/>
      <point x="155" y="761"/>
      <point x="89" y="761" type="curve" smooth="yes"/>
      <point x="50" y="761"/>
      <point x="20" y="741"/>
      <point x="0" y="716" type="curve"/>
      <point x="16" y="652" type="line"/>
      <point x="35" y="676"/>
      <point x="58" y="691"/>
      <point x="86" y="691" type="curve" smooth="yes"/>
      <point x="137" y="691"/>
      <point x="160" y="641"/>
    </contour>
  </outline>
</glyph>
<glyph name="macroncomb" format="2">
  <unicode hex="0304"/>
  <anchor x="139" y="534" name="_top"/>
  <anchor x="139" y="807" name="top"/>
  <outline>
    <contour>
      <point x="0" y="666" type="line"/>
      <point x="278" y="666" type="line"/>
      <point x="278" y="735" type="line"/>
      <point x="0" y="735" type="line"/>
    </contour>
  </outline>
</glyph>
<glyph name="hungarumlautcomb" format="2">
  <unicode hex="030B"/>
  <anchor x="121" y="534" name="_top"/>
  <anchor x="172" y="810" name="top"/>
  <outline>
    <contour>
      <point x="162" y="612" type="line"/>
      <point x="236" y="612" type="line"/>
      <point x="324" y="810" type="line"/>
      <point x="233" y="810" type="line"/>
    </contour>
    <contour>
      <point x="0" y="612" type="line"/>
      <point x="74" y="612" type="line"/>
      <point x="162" y="810" type="line"/>
      <point x="71" y="810" type="line"/>
    </contour>
  </outline>
</glyph>
<glyph name="cedillacomb" format="2">
  <unicode hex="0327"/>
  <anchor x="124" y="0" name="_bottom"/>
  <anchor x="124" y="-300" name="bottom"/>
  <outline>
    <contour>
      <point x="120" y="-242" type="curve" smooth="yes"/>
      <point x="201" y="-242"/>
      <point x="250" y="-197"/>
      <point x="250" y="-139" type="curve" smooth="yes"/>
      <point x="250" y="-80"/>
      <point x="199" y="-48"/>
      <point x="123" y="-48" type="curve" smooth="yes"/>
      <point x="107" y="-48" type="line"/>
      <point x="148" y="-85" type="line"/>
      <point x="148" y="10" type="line"/>
      <point x="90" y="10" type="line"/>
      <point x="90" y="-106" type="line"/>
      <point x="128" y="-106" type="line" smooth="yes"/>
      <point x="166" y="-106"/>
      <point x="182" y="-120"/>
      <point x="182" y="-141" type="curve" smooth="yes"/>
      <point x="182" y="-162"/>
      <point x="162" y="-178"/>
      <point x="120" y="-178" type="curve" smooth="yes"/>
      <point x="97" y="-178"/>
      <point x="71" y="-174"/>
      <point x="52" y="-169" type="curve"/>
      <point x="52" y="-233" type="line"/>
      <point x="70" y="-238"/>
      <point x="95" y="-242"/>
    </contour>
  </outline>
</glyph>
<glyph name="riel-khmer" format="2">
  <advance width="516"/>
  <unicode hex="17DB"/>
  <outline>
    <contour>
      <point x="253" y="-6" type="curve" smooth="yes"/>
      <point x="348" y="-6" type="line"/>
      <point x="348" y="373" type="line"/>
      <point x="266" y="373" type="line"/>
      <point x="266" y="27" type="line"/>
      <point x="302" y="70" type="line"/>
      <point x="249" y="70" type="line" smooth="yes"/>
      <point x="194" y="70"/>
      <point x="148" y="95"/>
      <point x="148" y="145" type="curve" smooth="yes"/>
      <point x="148" y="195"/>
      <point x="196" y="212"/>
      <point x="274" y="212" type="curve"/>
      <point x="274" y="283" type="line"/>
      <point x="156" y="283"/>
      <point x="66" y="235"/>
      <point x="66" y="143" type="curve" smooth="yes"/>
      <point x="66" y="42"/>
      <point x="153" y="-6"/>
    </contour>
    <contour>
      <point x="128" y="353" type="line"/>
      <point x="472" y="353" type="line"/>
      <point x="472" y="419" type="line"/>
      <point x="128" y="419" type="line"/>
    </contour>
    <contour>
      <point x="266" y="399" type="line"/>
      <point x="348" y="399" type="line"/>
      <point x="348" y="435" type="line" smooth="yes"/>
      <point x="348" y="489"/>
      <point x="336" y="520"/>
      <point x="297" y="544" type="curve" smooth="yes"/>
      <point x="261" y="566"/>
      <point x="223" y="585"/>
      <point x="206" y="597" type="curve" smooth="yes"/>
      <point x="192" y="607"/>
      <point x="190" y="623"/>
      <point x="196" y="639" type="curve" smooth="yes"/>
      <point x="202" y="656"/>
      <point x="214" y="662"/>
      <point x="243" y="662" type="curve" smooth="yes"/>
      <point x="309" y="662"/>
      <point x="350" y="657"/>
      <point x="401" y="650" type="curve"/>
      <point x="401" y="728" type="line"/>
      <point x="351" y="735"/>
      <point x="295" y="738"/>
      <point x="253" y="738" type="curve" smooth="yes"/>
      <point x="183" y="738"/>
      <point x="139" y="725"/>
      <point x="118" y="678" type="curve" smooth="yes"/>
      <point x="96" y="628"/>
      <point x="98" y="576"/>
      <point x="152" y="539" type="curve" smooth="yes"/>
      <point x="174" y="524"/>
      <point x="208" y="507"/>
      <point x="236" y="488" type="curve" smooth="yes"/>
      <point x="257" y="474"/>
      <point x="266" y="456"/>
      <point x="266" y="435" type="curve" smooth="yes"/>
    </contour>
  </outline>
</glyph>
<glyph name="quoteright" format="2">
  <advance width="244"/>
  <unicode hex="2019"/>
  <outline>
    <contour>
      <point x="48" y="426" type="line"/>
      <point x="55" y="426" type="line" smooth="yes"/>
      <point x="144" y="426"/>
      <point x="202" y="464"/>
      <point x="202" y="610" type="curve" smooth="yes"/>
      <point x="202" y="631" type="line" smooth="yes"/>
      <point x="202" y="716"/>
      <point x="165" y="738"/>
      <point x="127" y="738" type="curve" smooth="yes"/>
      <point x="87" y="738"/>
      <point x="62" y="709"/>
      <point x="62" y="671" type="curve" smooth="yes"/>
      <point x="62" y="630"/>
      <point x="90" y="605"/>
      <point x="127" y="605" type="curve" smooth="yes"/>
      <point x="141" y="605"/>
      <point x="159" y="608"/>
      <point x="168" y="613" type="curve"/>
      <point x="144" y="658" type="line"/>
      <point x="144" y="583" type="line" smooth="yes"/>
      <point x="144" y="511"/>
      <point x="121" y="478"/>
      <point x="57" y="478" type="curve" smooth="yes"/>
      <point x="48" y="478" type="line"/>
    </contour>
  </outline>
</glyph>
<glyph name="dagger" format="2">
  <advance width="546"/>
  <unicode hex="2020"/>
  <outline>
    <contour>
      <point x="230" y="-200" type="line"/>
      <point x="316" y="-200" type="line"/>
      <point x="316" y="374" type="line"/>
      <point x="230" y="374" type="line"/>
    </contour>
    <contour>
      <point x="48" y="458" type="line"/>
      <point x="498" y="458" type="line"/>
      <point x="498" y="534" type="line"/>
      <point x="48" y="534" type="line"/>
    </contour>
    <contour>
      <point x="230" y="500" type="line"/>
      <point x="316" y="500" type="line"/>
      <point x="316" y="730" type="line"/>
      <point x="230" y="730" type="line"/>
    </contour>
  </outline>
</glyph>
<glyph name="daggerdbl" format="2">
  <advance width="546"/>
  <unicode hex="2021"/>
  <outline>
    <contour>
      <point x="48" y="458" type="line"/>
      <point x="498" y="458" type="line"/>
      <point x="498" y="534" type="line"/>
      <point x="48" y="534" type="line"/>
    </contour>
    <contour>
      <point x="230" y="-200" type="line"/>
      <point x="316" y="-200" type="line"/>
      <point x="316" y="30" type="line"/>
      <point x="230" y="30" type="line"/>
    </contour>
    <contour>
      <point x="48" y="-4" type="line"/>
      <point x="498" y="-4" type="line"/>
      <point x="498" y="72" type="line"/>
      <point x="48" y="72" type="line"/>
    </contour>
    <contour>
      <point x="230" y="150" type="line"/>
      <point x="316" y="150" type="line"/>
      <point x="316" y="380" type="line"/>
      <point x="230" y="380" type="line"/>
    </contour>
    <contour>
      <point x="230" y="500" type="line"/>
      <point x="316" y="500" type="line"/>
      <point x="316" y="730" type="line"/>
      <point x="230" y="730" type="line"/>
    </contour>
  </outline>
</glyph>
<glyph name="minus" format="2">
  <advance width="590"/>
  <unicode hex="2212"/>
  <outline>
    <contour>
      <point x="66" y="306" type="line"/>
      <point x="524" y="306" type="line"/>
      <point x="524" y="382" type="line"/>
      <point x="66" y="382" type="line"/>
    </contour>
  </outline>
</glyph>
<glyph name="sora" format="2">
  <advance width="824"/>
  <unicode hex="E000"/>
  <outline>
    <contour>
      <point x="133" y="-8" type="line"/>
      <point x="398" y="376" type="line"/>
      <point x="378" y="370" type="line"/>
      <point x="441" y="370" type="line"/>
      <point x="423" y="376" type="line"/>
      <point x="686" y="-8" type="line"/>
      <point x="764" y="41" type="line"/>
      <point x="464" y="470" type="line"/>
      <point x="361" y="470" type="line"/>
      <point x="60" y="41" type="line"/>
    </contour>
    <contour>
      <point x="75" y="470" type="line"/>
      <point x="749" y="470" type="line"/>
      <point x="749" y="540" type="line"/>
      <point x="75" y="540" type="line"/>
    </contour>
    <contour>
      <point x="367" y="520" type="line"/>
      <point x="457" y="520" type="line"/>
      <point x="457" y="674" type="line"/>
      <point x="367" y="674" type="line"/>
    </contour>
    <contour>
      <point x="75" y="660" type="line"/>
      <point x="749" y="660" type="line"/>
      <point x="749" y="730" type="line"/>
      <point x="75" y="730" type="line"/>
    </contour>
  </outline>
</glyph>
<glyph name="fi" format="2">
  <advance width="663"/>
  <unicode hex="FB01"/>
  <outline>
    <contour>
      <point x="106" y="0" type="line"/>
      <point x="198" y="0" type="line"/>
      <point x="198" y="583" type="line" smooth="yes"/>
      <point x="198" y="631"/>
      <point x="225" y="660"/>
      <point x="275" y="660" type="curve" smooth="yes"/>
      <point x="351" y="660" type="line"/>
      <point x="351" y="740" type="line"/>
      <point x="291" y="740" type="line" smooth="yes"/>
      <point x="170" y="740"/>
      <point x="106" y="686"/>
      <point x="106" y="567" type="curve" smooth="yes"/>
    </contour>
    <contour>
      <point x="32" y="462" type="line"/>
      <point x="341" y="462" type="line"/>
      <point x="341" y="534" type="line"/>
      <point x="32" y="534" type="line"/>
    </contour>
    <contour>
      <point x="473" y="0" type="line"/>
      <point x="569" y="0" type="line"/>
      <point x="569" y="534" type="line"/>
      <point x="473" y="534" type="line"/>
    </contour>
    <contour>
      <point x="395" y="458" type="line"/>
      <point x="569" y="458" type="line"/>
      <point x="569" y="534" type="line"/>
      <point x="395" y="534" type="line"/>
    </contour>
    <contour>
      <point x="500" y="620" type="curve" smooth="yes"/>
      <point x="543" y="620"/>
      <point x="563" y="645"/>
      <point x="563" y="680" type="curve" smooth="yes"/>
      <point x="563" y="715"/>
      <point x="543" y="740"/>
      <point x="500" y="740" type="curve" smooth="yes"/>
      <point x="457" y="740"/>
      <point x="437" y="715"/>
      <point x="437" y="680" type="curve" smooth="yes"/>
      <point x="437" y="645"/>
      <point x="457" y="620"/>
    </contour>
  </outline>
</glyph>
<glyph name="bracketleft.case" format="2">
  <advance width="376"/>
  <outline>
    <contour>
      <point x="110" y="-118" type="line"/>
      <point x="202" y="-118" type="line"/>
      <point x="202" y="806" type="line"/>
      <point x="110" y="806" type="line"/>
    </contour>
    <contour>
      <point x="154" y="-118" type="line"/>
      <point x="322" y="-118" type="line"/>
      <point x="322" y="-42" type="line"/>
      <point x="154" y="-42" type="line"/>
    </contour>
    <contour>
      <point x="154" y="730" type="line"/>
      <point x="322" y="730" type="line"/>
      <point x="322" y="806" type="line"/>
      <point x="154" y="806" type="line"/>
    </contour>
  </outline>
</glyph>
<glyph name="brevecomb.case" format="2">
  <anchor x="166" y="730" name="_top"/>
  <anchor x="166" y="952" name="top"/>
  <outline>
    <contour>
      <point x="166" y="782" type="curve" smooth="yes"/>
      <point x="280" y="782"/>
      <point x="327" y="858"/>
      <point x="332" y="952" type="curve"/>
      <point x="270" y="952" type="line"/>
      <point x="267" y="895"/>
      <point x="236" y="846"/>
      <point x="166" y="846" type="curve" smooth="yes"/>
      <point x="96" y="846"/>
      <point x="71" y="895"/>
      <point x="68" y="952" type="curve"/>
      <point x="0" y="952" type="line"/>
      <point x="5" y="858"/>
      <point x="52" y="782"/>
    </contour>
  </outline>
</glyph>
<glyph name="caroncomb.case" format="2">
  <anchor x="188" y="730" name="_top"/>
  <anchor x="188" y="952" name="top"/>
  <outline>
    <contour>
      <point x="131" y="788" type="line"/>
      <point x="243" y="788" type="line"/>
      <point x="364" y="952" type="line"/>
      <point x="277" y="952" type="line"/>
      <point x="196" y="836" type="line"/>
      <point x="180" y="836" type="line"/>
      <point x="89" y="952" type="line"/>
      <point x="0" y="952" type="line"/>
    </contour>
  </outline>
</glyph>
<glyph name="cedillacomb.case" format="2">
  <anchor x="73" y="0" name="_bottom"/>
  <anchor x="77" y="-300" name="bottom"/>
  <outline>
    <contour>
      <point x="72" y="-248" type="curve" smooth="yes"/>
      <point x="158" y="-248"/>
      <point x="210" y="-200"/>
      <point x="210" y="-141" type="curve" smooth="yes"/>
      <point x="210" y="-81"/>
      <point x="156" y="-48"/>
      <point x="77" y="-48" type="curve" smooth="yes"/>
      <point x="61" y="-48" type="line"/>
      <point x="105" y="-85" type="line"/>
      <point x="105" y="10" type="line"/>
      <point x="41" y="10" type="line"/>
      <point x="41" y="-110" type="line"/>
      <point x="81" y="-110" type="line" smooth="yes"/>
      <point x="119" y="-110"/>
      <point x="140" y="-123"/>
      <point x="140" y="-143" type="curve" smooth="yes"/>
      <point x="140" y="-164"/>
      <point x="117" y="-180"/>
      <point x="72" y="-180" type="curve" smooth="yes"/>
      <point x="49" y="-180"/>
      <point x="20" y="-176"/>
      <point x="0" y="-170" type="curve"/>
      <point x="0" y="-238" type="line"/>
      <point x="19" y="-244"/>
      <point x="47" y="-248"/>
    </contour>
  </outline>
</glyph>
<glyph name="commaturnedabovecomb.case" format="2">
  <anchor x="67" y="720" name="_top"/>
  <anchor x="67" y="916" name="top"/>
  <outline>
    <contour>
      <point x="74" y="758" type="curve" smooth="yes"/>
      <point x="105" y="758"/>
      <point x="132" y="773"/>
      <point x="132" y="809" type="curve" smooth="yes"/>
      <point x="132" y="845"/>
      <point x="107" y="859"/>
      <point x="76" y="859" type="curve" smooth="yes"/>
      <point x="53" y="859"/>
      <point x="37" y="851"/>
      <point x="28" y="837" type="curve"/>
      <point x="53" y="834" type="line"/>
      <point x="52" y="863" type="line" smooth="yes"/>
      <point x="51" y="899"/>
      <point x="74" y="922"/>
      <point x="123" y="922" type="curve" smooth="yes"/>
      <point x="132" y="922" type="line"/>
      <point x="132" y="968" type="line"/>
      <point x="125" y="968" type="line" smooth="yes"/>
      <point x="45" y="968"/>
      <point x="0" y="930"/>
      <point x="0" y="859" type="curve" smooth="yes"/>
      <point x="0" y="853" type="line" smooth="yes"/>
      <point x="0" y="790"/>
      <point x="29" y="758"/>
    </contour>
  </outline>
</glyph>
<glyph name="divide.tnum" format="2">
  <advance width="650"/>
  <outline>
    <contour>
      <point x="86" y="306" type="line"/>
      <point x="564" y="306" type="line"/>
      <point x="564" y="382" type="line"/>
      <point x="86" y="382" type="line"/>
    </contour>
    <contour>
      <point x="273" y="88" type="line"/>
      <point x="377" y="88" type="line"/>
      <point x="377" y="200" type="line"/>
      <point x="273" y="200" type="line"/>
    </contour>
    <contour>
      <point x="273" y="488" type="line"/>
      <point x="377" y="488" type="line"/>
      <point x="377" y="600" type="line"/>
      <point x="273" y="600" type="line"/>
    </contour>
  </outline>
</glyph>
<glyph name="dollar.tnum" format="2">
  <advance width="650"/>
  <outline>
    <contour>
      <point x="335" y="1" type="curve" smooth="yes"/>
      <point x="497" y="1"/>
      <point x="598" y="83"/>
      <point x="598" y="207" type="curve" smooth="yes"/>
      <point x="598" y="327"/>
      <point x="507" y="399"/>
      <point x="368" y="412" type="curve" smooth="yes"/>
      <point x="302" y="418" type="line" smooth="yes"/>
      <point x="220" y="425"/>
      <point x="182" y="473"/>
      <point x="182" y="530" type="curve" smooth="yes"/>
      <point x="182" y="595"/>
      <point x="236" y="647"/>
      <point x="331" y="647" type="curve" smooth="yes"/>
      <point x="437" y="647"/>
      <point x="479" y="575"/>
      <point x="479" y="505" type="curve"/>
      <point x="569" y="505" type="line"/>
      <point x="569" y="647"/>
      <point x="477" y="729"/>
      <point x="331" y="729" type="curve" smooth="yes"/>
      <point x="185" y="729"/>
      <point x="90" y="655"/>
      <point x="90" y="530" type="curve" smooth="yes"/>
      <point x="90" y="408"/>
      <point x="169" y="343"/>
      <point x="294" y="332" type="curve" smooth="yes"/>
      <point x="360" y="326" type="line" smooth="yes"/>
      <point x="454" y="317"/>
      <point x="506" y="270"/>
      <point x="506" y="207" type="curve" smooth="yes"/>
      <point x="506" y="142"/>
      <point x="451" y="83"/>
      <point x="335" y="83" type="curve" smooth="yes"/>
      <point x="203" y="83"/>
      <point x="161" y="165"/>
      <point x="161" y="233" type="curve"/>
      <point x="71" y="233" type="line"/>
      <point x="71" y="91"/>
      <point x="166" y="1"/>
    </contour>
    <contour>
      <point x="292" y="-129" type="line"/>
      <point x="378" y="-129" type="line"/>
      <point x="378" y="17" type="line"/>
      <point x="292" y="17" type="line"/>
    </contour>
    <contour>
      <point x="288" y="681" type="line"/>
      <point x="374" y="681" type="line"/>
      <point x="374" y="827" type="line"/>
      <point x="288" y="827" type="line"/>
    </contour>
  </outline>
</glyph>
<glyph name="f_f_l.salt" format="2">
  <advance width="1021"/>
  <outline>
    <contour>
      <point x="106" y="0" type="line"/>
      <point x="198" y="0" type="line"/>
      <point x="198" y="611" type="line" smooth="yes"/>
      <point x="198" y="641"/>
      <point x="214" y="666"/>
      <point x="246" y="666" type="curve" smooth="yes"/>
      <point x="278" y="666"/>
      <point x="296" y="641"/>
      <point x="296" y="611" type="curve"/>
      <point x="372" y="611" type="line"/>
      <point x="372" y="687"/>
      <point x="329" y="740"/>
      <point x="244" y="740" type="curve" smooth="yes"/>
      <point x="159" y="740"/>
      <point x="106" y="687"/>
      <point x="106" y="611" type="curve" smooth="yes"/>
    </contour>
    <contour>
      <point x="457" y="0" type="line"/>
      <point x="549" y="0" type="line"/>
      <point x="549" y="617" type="line" smooth="yes"/>
      <point x="549" y="647"/>
      <point x="565" y="672"/>
      <point x="598" y="672" type="curve" smooth="yes"/>
      <point x="631" y="672"/>
      <point x="649" y="647"/>
      <point x="649" y="617" type="curve"/>
      <point x="725" y="617" type="line"/>
      <point x="725" y="693"/>
      <point x="683" y="746"/>
      <point x="596" y="746" type="curve" smooth="yes"/>
      <point x="509" y="746"/>
      <point x="457" y="693"/>
      <point x="457" y="617" type="curve" smooth="yes"/>
    </contour>
    <contour>
      <point x="933" y="-6" type="curve" smooth="yes"/>
      <point x="983" y="-6" type="line"/>
      <point x="983" y="76" type="line"/>
      <point x="927" y="76" type="line" smooth="yes"/>
      <point x="901" y="76"/>
      <point x="887" y="90"/>
      <point x="887" y="116" type="curve" smooth="yes"/>
      <point x="887" y="730" type="line"/>
      <point x="791" y="730" type="line"/>
      <point x="791" y="120" type="line" smooth="yes"/>
      <point x="791" y="28"/>
      <point x="845" y="-6"/>
    </contour>
    <contour>
      <point x="32" y="452" type="line"/>
      <point x="703" y="452" type="line"/>
      <point x="703" y="524" type="line"/>
      <point x="32" y="524" type="line"/>
    </contour>
  </outline>
</glyph>
<glyph name="f_j" format="2">
  <advance width="664"/>
  <outline>
    <contour>
      <point x="106" y="0" type="line"/>
      <point x="198" y="0" type="line"/>
      <point x="198" y="583" type="line" smooth="yes"/>
      <point x="198" y="631"/>
      <point x="225" y="660"/>
      <point x="275" y="660" type="curve" smooth="yes"/>
      <point x="344" y="660" type="line"/>
      <point x="344" y="740" type="line"/>
      <point x="291" y="740" type="line" smooth="yes"/>
      <point x="170" y="740"/>
      <point x="106" y="686"/>
      <point x="106" y="567" type="curve" smooth="yes"/>
    </contour>
    <contour>
      <point x="343" y="-200" type="line"/>
      <point x="387" y="-200" type="line" smooth="yes"/>
      <point x="521" y="-200"/>
      <point x="572" y="-155"/>
      <point x="572" y="-21" type="curve" smooth="yes"/>
      <point x="572" y="534" type="line"/>
      <point x="480" y="534" type="line"/>
      <point x="480" y="-35" type="line" smooth="yes"/>
      <point x="480" y="-85"/>
      <point x="451" y="-114"/>
      <point x="401" y="-114" type="curve" smooth="yes"/>
      <point x="343" y="-114" type="line"/>
    </contour>
    <contour>
      <point x="32" y="462" type="line"/>
      <point x="348" y="462" type="line"/>
      <point x="348" y="534" type="line"/>
      <point x="32" y="534" type="line"/>
    </contour>
    <contour>
      <point x="402" y="458" type="line"/>
      <point x="572" y="458" type="line"/>
      <point x="572" y="534" type="line"/>
      <point x="402" y="534" type="line"/>
    </contour>
    <contour>
      <point x="503" y="628" type="curve" smooth="yes"/>
      <point x="546" y="628"/>
      <point x="566" y="653"/>
      <point x="566" y="688" type="curve" smooth="yes"/>
      <point x="566" y="723"/>
      <point x="546" y="748"/>
      <point x="503" y="748" type="curve" smooth="yes"/>
      <point x="460" y="748"/>
      <point x="440" y="723"/>
      <point x="440" y="688" type="curve" smooth="yes"/>
      <point x="440" y="653"/>
      <point x="460" y="628"/>
    </contour>
  </outline>
</glyph>
<glyph name="fi.salt" format="2">
  <advance width="662"/>
  <outline>
    <contour>
      <point x="106" y="0" type="line"/>
      <point x="198" y="0" type="line"/>
      <point x="198" y="617" type="line" smooth="yes"/>
      <point x="198" y="648"/>
      <point x="216" y="672"/>
      <point x="250" y="672" type="curve" smooth="yes"/>
      <point x="284" y="672"/>
      <point x="304" y="648"/>
      <point x="304" y="617" type="curve"/>
      <point x="380" y="617" type="line"/>
      <point x="380" y="694"/>
      <point x="336" y="746"/>
      <point x="248" y="746" type="curve" smooth="yes"/>
      <point x="160" y="746"/>
      <point x="106" y="694"/>
      <point x="106" y="617" type="curve" smooth="yes"/>
    </contour>
    <contour>
      <point x="32" y="462" type="line"/>
      <point x="337" y="462" type="line"/>
      <point x="337" y="534" type="line"/>
      <point x="32" y="534" type="line"/>
    </contour>
    <contour>
      <point x="472" y="0" type="line"/>
      <point x="568" y="0" type="line"/>
      <point x="568" y="534" type="line"/>
      <point x="472" y="534" type="line"/>
    </contour>
    <contour>
      <point x="391" y="458" type="line"/>
      <point x="568" y="458" type="line"/>
      <point x="568" y="534" type="line"/>
      <point x="391" y="534" type="line"/>
    </contour>
    <contour>
      <point x="502" y="620" type="curve" smooth="yes"/>
      <point x="545" y="620"/>
      <point x="565" y="645"/>
      <point x="565" y="680" type="curve" smooth="yes"/>
      <point x="565" y="715"/>
      <point x="545" y="740"/>
      <point x="502" y="740" type="curve" smooth="yes"/>
      <point x="459" y="740"/>
      <point x="439" y="715"/>
      <point x="439" y="680" type="curve" smooth="yes"/>
      <point x="439" y="645"/>
      <point x="459" y="620"/>
    </contour>
  </outline>
</glyph>
<glyph name="four.tnum" format="2">
  <advance width="650"/>
  <outline>
    <contour>
      <point x="50" y="173" type="line"/>
      <point x="620" y="173" type="line"/>
      <point x="620" y="249" type="line"/>
      <point x="146" y="249" type="line"/>
      <point x="137" y="267" type="line"/>
      <point x="417" y="695" type="line"/>
      <point x="350" y="748" type="line"/>
      <point x="50" y="291" type="line"/>
    </contour>
    <contour>
      <point x="434" y="0" type="line"/>
      <point x="524" y="0" type="line"/>
      <point x="524" y="517" type="line"/>
      <point x="434" y="517" type="line"/>
    </contour>
  </outline>
</glyph>
<glyph name="guilsinglleft.case" format="2">
  <advance width="322"/>
  <outline>
    <contour>
      <point x="172" y="141" type="line"/>
      <point x="270" y="141" type="line"/>
      <point x="130" y="356" type="line"/>
      <point x="130" y="376" type="line"/>
      <point x="270" y="591" type="line"/>
      <point x="178" y="591" type="line"/>
      <point x="40" y="385" type="line"/>
      <point x="40" y="341" type="line"/>
    </contour>
  </outline>
</glyph>
<glyph name="minus.tnum" format="2">
  <advance width="650"/>
  <outline>
    <contour>
      <point x="86" y="306" type="line"/>
      <point x="564" y="306" type="line"/>
      <point x="564" y="382" type="line"/>
      <point x="86" y="382" type="line"/>
    </contour>
  </outline>
</glyph>
<glyph name="parenleft.case" format="2">
  <advance width="376"/>
  <outline>
    <contour>
      <point x="250" y="-118" type="curve"/>
      <point x="360" y="-118" type="line"/>
      <point x="235" y="17"/>
      <point x="168" y="153"/>
      <point x="168" y="346" type="curve" smooth="yes"/>
      <point x="168" y="539"/>
      <point x="237" y="673"/>
      <point x="360" y="806" type="curve"/>
      <point x="250" y="806" type="line"/>
      <point x="146" y="691"/>
      <point x="74" y="554"/>
      <point x="74" y="346" type="curve" smooth="yes"/>
      <point x="74" y="138"/>
      <point x="144" y="-1"/>
    </contour>
  </outline>
</glyph>
<glyph name="ringcomb.case" format="2">
  <anchor x="119" y="730" name="_top"/>
  <anchor x="119" y="958" name="top"/>
  <outline>
    <contour>
      <point x="119" y="768" type="curve" smooth="yes"/>
      <point x="192" y="768"/>
      <point x="238" y="817"/>
      <point x="238" y="876" type="curve" smooth="yes"/>
      <point x="238" y="935"/>
      <point x="192" y="984"/>
      <point x="119" y="984" type="curve" smooth="yes"/>
      <point x="46" y="984"/>
      <point x="0" y="935"/>
      <point x="0" y="876" type="curve" smooth="yes"/>
      <point x="0" y="817"/>
      <point x="46" y="768"/>
    </contour>
    <contour>
      <point x="119" y="820" type="curve" smooth="yes"/>
      <point x="79" y="820"/>
      <point x="56" y="844"/>
      <point x="56" y="876" type="curve" smooth="yes"/>
      <point x="56" y="908"/>
      <point x="79" y="932"/>
      <point x="119" y="932" type="curve" smooth="yes"/>
      <point x="159" y="932"/>
      <point x="182" y="908"/>
      <point x="182" y="876" type="curve" smooth="yes"/>
      <point x="182" y="844"/>
      <point x="159" y="820"/>
    </contour>
  </outline>
</glyph>
<glyph name="six.tnum" format="2">
  <advance width="650"/>
  <outline>
    <contour>
      <point x="346" y="-20" type="curve" smooth="yes"/>
      <point x="513" y="-20"/>
      <point x="601" y="85"/>
      <point x="601" y="227" type="curve" smooth="yes"/>
      <point x="601" y="367"/>
      <point x="520" y="470"/>
      <point x="357" y="470" type="curve" smooth="yes"/>
      <point x="222" y="470"/>
      <point x="136" y="382"/>
      <point x="134" y="235" type="curve"/>
      <point x="158" y="235" type="line"/>
      <point x="158" y="369" type="line" smooth="yes"/>
      <point x="158" y="549"/>
      <point x="219" y="653"/>
      <point x="399" y="653" type="curve" smooth="yes"/>
      <point x="451" y="653"/>
      <point x="484" y="650"/>
      <point x="527" y="645" type="curve"/>
      <point x="527" y="727" type="line"/>
      <point x="485" y="732"/>
      <point x="454" y="735"/>
      <point x="403" y="735" type="curve" smooth="yes"/>
      <point x="191" y="735"/>
      <point x="70" y="606"/>
      <point x="70" y="383" type="curve" smooth="yes"/>
      <point x="70" y="334" type="line" smooth="yes"/>
      <point x="70" y="144"/>
      <point x="134" y="-20"/>
    </contour>
    <contour>
      <point x="346" y="64" type="curve" smooth="yes"/>
      <point x="224" y="64"/>
      <point x="176" y="134"/>
      <point x="176" y="227" type="curve" smooth="yes"/>
      <point x="176" y="329"/>
      <point x="250" y="390"/>
      <point x="348" y="390" type="curve" smooth="yes"/>
      <point x="460" y="390"/>
      <point x="509" y="327"/>
      <point x="509" y="227" type="curve" smooth="yes"/>
      <point x="509" y="136"/>
      <point x="447" y="64"/>
    </contour>
  </outline>
</glyph>
<glyph name="sterling.tnum" format="2">
  <advance width="650"/>
  <outline>
    <contour>
      <point x="150" y="0" type="line"/>
      <point x="236" y="0" type="line"/>
      <point x="236" y="486" type="line" smooth="yes"/>
      <point x="236" y="608"/>
      <point x="301" y="656"/>
      <point x="391" y="656" type="curve" smooth="yes"/>
      <point x="430" y="656"/>
      <point x="513" y="651"/>
      <point x="550" y="646" type="curve"/>
      <point x="550" y="728" type="line"/>
      <point x="514" y="733"/>
      <point x="433" y="738"/>
      <point x="393" y="738" type="curve" smooth="yes"/>
      <point x="240" y="738"/>
      <point x="150" y="647"/>
      <point x="150" y="493" type="curve" smooth="yes"/>
    </contour>
    <contour>
      <point x="70" y="0" type="line"/>
      <point x="552" y="0" type="line"/>
      <point x="552" y="76" type="line"/>
      <point x="70" y="76" type="line"/>
    </contour>
    <contour>
      <point x="76" y="316" type="line"/>
      <point x="482" y="316" type="line"/>
      <point x="482" y="382" type="line"/>
      <point x="76" y="382" type="line"/>
    </contour>
    <contour>
      <point x="516" y="0" type="line"/>
      <point x="596" y="0" type="line"/>
      <point x="596" y="170" type="line"/>
      <point x="516" y="170" type="line"/>
    </contour>
  </outline>
</glyph>
